<svg version="1.1" id="Layer_1" xmlns="http://www.w3.org/2000/svg" xmlns:xlink="http://www.w3.org/1999/xlink" x="0px" y="0px"
	 width="100%" viewBox="0 0 2000 1500" enable-background="new 0 0 2000 1500" xml:space="preserve">
<path fill="#B19DD0" opacity="1.000000" stroke="none" 
	d="
M1219.000000,1501.000000 
	C812.666809,1501.000000 406.833588,1501.000000 1.000272,1501.000000 
	C1.000181,1001.000244 1.000181,501.000549 1.000091,1.000608 
	C667.666199,1.000405 1334.332397,1.000405 2000.998901,1.000203 
	C2000.999268,500.999390 2000.999268,1000.998779 2000.999634,1500.999023 
	C1740.500000,1501.000000 1480.000000,1501.000000 1219.000000,1501.000000 
M1443.291870,661.892883 
	C1440.460449,664.772278 1437.633057,667.655579 1434.796265,670.529785 
	C1432.772095,672.580688 1430.735229,674.619263 1428.704102,676.663330 
	C1428.132935,676.307312 1427.561890,675.951294 1426.990723,675.595276 
	C1426.990723,673.666199 1427.072388,671.733154 1426.977905,669.808777 
	C1426.195312,653.871582 1425.883423,637.890259 1424.442749,622.011780 
	C1422.774170,603.621765 1420.178345,585.313049 1417.824585,566.989624 
	C1417.114746,561.464172 1416.687134,556.058594 1413.409790,550.892151 
	C1390.741943,515.159546 1368.502075,479.155914 1345.995117,443.320709 
	C1338.294312,431.059357 1331.183350,418.253540 1322.122925,407.055695 
	C1302.122192,382.336060 1276.707520,364.103790 1248.262939,350.133270 
	C1226.203735,339.298920 1203.437012,329.633575 1178.920288,326.990936 
	C1160.018188,324.953461 1140.755981,325.927216 1121.666992,326.278809 
	C1118.531982,326.336578 1115.324463,329.917542 1112.429688,332.221008 
	C1111.095215,333.282990 1110.434204,335.191101 1109.341309,336.914978 
	C1099.759766,332.248596 1089.823364,333.987183 1080.209717,335.379303 
	C1067.076538,337.281128 1060.791138,351.806519 1067.965942,363.053406 
	C1070.594604,367.174011 1074.260132,370.870697 1078.111450,373.932068 
	C1093.734863,386.351044 1112.280151,390.461334 1131.655029,392.055176 
	C1134.713257,392.306793 1138.104614,392.578339 1140.671631,394.027802 
	C1152.126831,400.495850 1163.738403,406.812408 1174.567261,414.241943 
	C1214.539429,441.666412 1254.386963,469.281372 1293.886719,497.379272 
	C1302.344604,503.395691 1309.805542,503.747833 1318.372559,499.236969 
	C1321.666626,497.502472 1325.018066,495.876953 1327.594971,494.578888 
	C1329.435669,505.177124 1330.339111,515.661499 1333.180176,525.591431 
	C1338.430420,543.940552 1344.719849,561.793152 1363.236450,572.030823 
	C1369.715698,575.613098 1374.085571,582.494629 1374.865723,589.998718 
	C1375.748413,598.489075 1376.125122,607.389160 1374.489014,615.669861 
	C1373.212036,622.132019 1373.590820,627.286743 1376.928589,632.587646 
	C1377.636230,633.711426 1378.163086,634.948181 1378.785767,636.126282 
	C1386.000610,649.776123 1394.362549,662.726807 1406.426880,672.492249 
	C1411.555176,676.643311 1414.741943,680.338440 1414.288574,687.234253 
	C1414.130371,689.642395 1416.334229,693.553467 1418.400635,694.356689 
	C1420.229004,695.067383 1423.378662,692.443054 1425.912231,691.223206 
	C1426.452515,690.963135 1426.851929,690.410583 1427.837158,689.523987 
	C1426.003174,711.576721 1421.056641,732.909973 1426.503052,755.808350 
	C1426.857056,753.788574 1426.988892,753.158203 1427.075928,752.521729 
	C1429.710449,733.238831 1431.831299,713.866760 1435.166870,694.706055 
	C1437.096069,683.624817 1440.981812,672.884155 1444.183228,661.930237 
	C1444.183228,661.930237 1444.141113,661.661377 1444.141113,661.661377 
	C1444.141113,661.661377 1444.015991,662.019531 1443.291870,661.892883 
M1092.910645,1077.605713 
	C1092.780518,1077.580200 1092.650391,1077.554565 1092.520264,1077.528931 
	C1092.593994,1077.769653 1092.667847,1078.010254 1092.774048,1079.068604 
	C1093.301392,1082.588745 1093.828857,1086.108887 1094.528198,1090.776123 
	C1091.714966,1089.287842 1090.540894,1088.666748 1089.281006,1088.000244 
	C1087.600098,1097.789307 1087.599487,1097.788696 1080.748901,1104.537476 
	C1080.155396,1105.122192 1079.506226,1105.667114 1078.999756,1106.320923 
	C1075.211548,1111.210815 1069.971802,1112.317627 1064.103638,1113.090576 
	C1049.109985,1115.065552 1034.217773,1117.799194 1019.254395,1120.024292 
	C1015.900024,1120.523071 1012.328247,1120.717285 1009.013550,1120.144043 
	C982.132935,1115.494751 955.340515,1110.315552 928.414673,1105.956177 
	C914.143616,1103.645874 899.562439,1103.244629 885.296448,1100.910889 
	C864.273438,1097.472168 845.573547,1088.008057 827.480591,1076.773193 
	C837.513489,1069.626465 839.432190,1066.208984 836.447937,1060.888916 
	C831.802979,1067.389526 824.401306,1067.544434 817.643738,1068.727661 
	C815.342773,1069.130615 811.994568,1068.016479 810.242432,1066.390991 
	C794.975159,1052.226807 779.832092,1037.922363 764.900574,1023.403931 
	C735.760193,995.069580 706.723877,966.627502 677.760315,938.112366 
	C665.121277,925.669128 655.829773,910.999207 649.401123,894.425781 
	C644.523315,881.850586 639.174805,869.457275 633.975403,857.008301 
	C633.250549,855.272949 632.179749,853.681946 631.269043,852.024170 
	C631.100891,852.622437 630.932678,853.220703 630.764526,853.818970 
	C627.836426,854.051819 624.391479,855.372986 622.092346,854.281189 
	C617.867981,852.275024 615.425354,843.148987 617.004333,839.200562 
	C619.256165,833.569458 623.463257,834.870972 627.844055,836.564514 
	C627.844055,834.946960 627.983459,833.778503 627.822998,832.652771 
	C625.709045,817.819824 624.136414,802.877808 621.240356,788.197449 
	C618.443359,774.018982 619.003357,760.878113 627.065369,748.408569 
	C629.077759,745.296082 630.439575,741.387207 630.884216,737.697754 
	C633.772400,713.735352 636.200500,689.717773 639.029358,665.747803 
	C640.998718,649.061035 642.494507,632.250244 645.722351,615.793091 
	C655.058167,568.193481 679.227844,528.356689 712.667969,494.013489 
	C730.788513,475.403564 749.879395,457.717926 768.935852,440.050415 
	C776.217407,433.299683 784.193726,427.073364 792.608093,421.816010 
	C810.545288,410.608826 828.959961,400.164124 847.207886,389.456421 
	C878.703247,370.975281 911.306763,354.992157 947.864380,349.623566 
	C963.613708,347.310669 979.679260,347.107269 995.610779,346.098083 
	C1003.489380,345.598999 1011.429932,345.826935 1019.266113,345.001221 
	C1024.409912,344.459198 1028.640259,340.916901 1029.518433,335.912689 
	C1030.867065,328.226929 1030.902588,320.310760 1031.564087,311.586182 
	C1023.151550,314.485229 1017.805786,311.351685 1012.769531,307.131134 
	C1010.216614,304.991699 1007.732056,302.731018 1004.978333,300.879425 
	C999.561646,297.237488 994.049438,295.017731 987.383484,298.576752 
	C983.018555,300.907227 978.052429,302.105988 973.367249,303.843079 
	C950.695923,312.248718 928.096497,320.804474 908.275574,335.145355 
	C907.806091,335.485016 907.103333,335.502228 905.717896,335.893250 
	C906.109192,331.455963 906.742981,327.544800 906.675232,323.645844 
	C906.641724,321.718689 905.809509,318.894012 904.435486,318.155334 
	C903.033386,317.401581 900.192993,318.189758 898.573486,319.226349 
	C895.800537,321.001251 893.470154,323.475464 890.985962,325.692017 
	C885.148743,330.900543 879.431824,336.249786 873.468994,341.309753 
	C869.456909,344.714386 864.770142,346.073334 859.463501,344.526031 
	C858.050903,344.114105 856.499573,344.099915 855.007080,344.051453 
	C835.600891,343.421356 815.193176,357.696930 807.522461,377.923645 
	C805.735535,382.635406 802.866211,384.098297 798.652771,383.924377 
	C793.195923,383.699127 787.719666,383.252106 782.321533,382.438110 
	C770.995361,380.730286 761.101990,382.578094 752.452271,391.009277 
	C730.266907,412.634033 707.848511,434.026337 685.209229,455.175354 
	C677.249634,462.610962 671.827942,471.182190 669.060425,481.602783 
	C666.826477,490.014252 662.486816,497.261566 656.337524,503.356628 
	C646.522949,513.084778 637.122314,523.326965 626.585449,532.211853 
	C595.884399,558.099548 576.820007,590.487854 570.036316,630.028137 
	C565.533203,656.275330 561.231689,682.558838 557.136841,708.872314 
	C556.648193,712.012634 557.205566,715.876648 558.674072,718.671814 
	C570.243835,740.692688 580.950378,763.075256 587.541382,787.148560 
	C590.438171,797.729004 592.595581,808.527710 594.706848,819.302063 
	C596.134521,826.587708 592.904541,829.562073 585.527954,828.514099 
	C584.914856,828.426941 584.278625,828.502563 583.278259,828.502563 
	C582.871033,842.560425 582.068481,856.355286 587.776428,869.506531 
	C593.015564,881.577698 598.332336,893.617554 603.385071,905.766846 
	C617.963196,940.819458 632.480652,975.897705 646.874390,1011.026306 
	C649.072937,1016.392029 649.824463,1021.571045 657.082947,1023.965271 
	C664.745178,1026.492798 666.709229,1034.770142 667.983337,1042.411499 
	C670.220886,1055.831055 674.219482,1068.707520 681.276245,1080.395508 
	C693.690125,1100.956421 710.925720,1113.449829 736.102966,1112.127930 
	C739.427551,1111.953369 742.768372,1112.040161 746.100952,1112.073853 
	C757.661011,1112.191040 767.838013,1115.621094 776.792603,1123.338379 
	C788.577332,1133.494751 802.989197,1137.875244 818.179810,1138.771118 
	C825.512817,1139.203735 832.028076,1140.335815 838.506531,1143.992432 
	C857.936890,1154.959595 877.736023,1165.273071 897.173035,1176.228760 
	C902.335693,1179.138672 906.786987,1182.662109 912.813232,1176.026733 
	C913.081726,1181.521851 913.278442,1185.548096 913.484741,1189.769775 
	C914.927979,1189.769775 915.922729,1189.874390 916.889587,1189.754639 
	C946.106995,1186.132812 975.354553,1182.279175 1004.858032,1185.128296 
	C1018.882446,1186.482666 1032.765259,1189.270264 1046.736328,1191.238281 
	C1049.744141,1191.661987 1052.856934,1191.429321 1055.918457,1191.364014 
	C1062.512817,1191.223145 1069.540161,1189.449097 1075.599854,1191.153687 
	C1085.405029,1193.911987 1094.513428,1199.082153 1104.042236,1202.920776 
	C1107.659912,1204.377930 1111.579468,1205.448120 1115.446411,1205.826782 
	C1119.733154,1206.246582 1121.065674,1204.169434 1120.146973,1199.936768 
	C1119.908691,1198.838501 1119.653442,1197.744019 1119.375732,1196.514282 
	C1127.825317,1191.271118 1137.401001,1190.363525 1146.418457,1187.621948 
	C1156.449951,1184.572144 1163.282227,1186.716431 1168.767822,1195.671875 
	C1170.716064,1198.852295 1174.616211,1200.837036 1177.625244,1203.367676 
	C1178.083862,1203.003174 1178.542480,1202.638672 1179.001099,1202.274170 
	C1179.001099,1199.800049 1178.996826,1197.326050 1179.001831,1194.852051 
	C1179.027100,1182.166138 1185.247559,1177.174805 1197.881592,1179.511841 
	C1200.389648,1179.975708 1203.013062,1179.816162 1206.004272,1179.965210 
	C1206.004272,1175.729126 1205.559204,1172.189331 1206.130371,1168.821777 
	C1206.693970,1165.498657 1207.447144,1161.587036 1209.569214,1159.255005 
	C1219.318848,1148.540771 1229.427490,1138.138184 1239.734131,1127.954346 
	C1243.297974,1124.432983 1247.807495,1121.868530 1251.870728,1118.877319 
	C1256.904907,1124.219238 1261.289307,1128.871826 1265.673828,1133.524536 
	C1266.905518,1125.776123 1264.332886,1119.592163 1259.727173,1114.121704 
	C1257.799194,1111.831787 1255.617920,1109.747314 1253.781616,1107.390381 
	C1252.184326,1105.340332 1252.184570,1103.023804 1255.015503,1102.221069 
	C1264.954224,1099.403198 1274.702881,1092.503662 1285.497925,1101.075073 
	C1283.223511,1091.386353 1286.252075,1087.528442 1295.837158,1086.968750 
	C1297.333008,1086.881348 1298.835815,1086.885010 1300.335083,1086.894897 
	C1313.885010,1086.984009 1318.371826,1083.441895 1320.249512,1070.042236 
	C1320.891479,1065.460449 1322.727173,1061.985229 1325.684570,1058.673828 
	C1361.787720,1018.248474 1387.660889,971.755066 1406.940552,921.368408 
	C1407.669800,919.462952 1408.224854,917.490845 1408.861084,915.549744 
	C1406.310913,916.083252 1404.668457,917.140015 1403.144287,918.346436 
	C1392.854736,926.490662 1384.354126,936.227600 1377.189697,947.209167 
	C1375.313477,950.084961 1373.260620,953.491028 1370.419067,954.903076 
	C1367.784668,956.212158 1363.987793,955.182251 1360.316650,955.182251 
	C1358.931152,959.348816 1357.376831,964.023071 1355.822510,968.697266 
	C1355.562378,968.610596 1355.302124,968.523926 1355.041992,968.437256 
	C1355.041992,965.109558 1355.041992,961.781799 1355.041992,957.828186 
	C1352.975830,959.377869 1351.515381,960.466675 1350.061646,961.564270 
	C1321.072388,983.448975 1292.408203,1005.782349 1262.994995,1027.081299 
	C1238.715210,1044.662964 1213.624268,1061.131958 1188.736084,1077.861206 
	C1180.052856,1083.697876 1171.788208,1085.248413 1165.867920,1073.700439 
	C1165.758057,1073.486084 1165.306885,1073.446655 1164.719238,1073.202881 
	C1162.664551,1074.903687 1160.677734,1076.985840 1158.296631,1078.408447 
	C1155.322021,1080.185669 1152.022949,1081.420044 1148.864014,1082.888672 
	C1147.684814,1079.891479 1146.505493,1076.894165 1144.957153,1072.958862 
	C1141.946533,1072.958862 1137.166138,1071.791992 1133.480469,1073.300415 
	C1130.072876,1074.695190 1127.838135,1078.955688 1124.885010,1082.174194 
	C1123.318237,1080.211304 1121.667236,1078.142944 1119.308105,1075.187500 
	C1118.297729,1080.516235 1117.521851,1084.607910 1116.791138,1088.461304 
	C1115.458008,1087.290161 1113.492676,1085.221558 1113.252808,1085.405151 
	C1110.373169,1087.611206 1107.749268,1090.150879 1105.370239,1092.319214 
	C1101.439941,1087.714722 1097.257080,1082.814453 1092.910645,1077.605713 
M933.987000,995.501038 
	C935.316284,995.586670 936.644470,995.701050 937.975098,995.753357 
	C948.606262,996.171326 959.241455,996.503479 969.867554,997.023621 
	C974.143799,997.232910 976.564819,996.643250 975.212219,991.277222 
	C974.382080,987.983826 975.242249,984.301025 974.978027,980.820862 
	C974.386902,973.035156 973.605591,965.263000 972.823486,957.493164 
	C972.466064,953.942444 970.822998,952.288208 966.827271,951.716736 
	C945.608398,948.681763 937.786621,941.549561 933.684204,920.436707 
	C931.661621,910.027710 930.493835,899.307983 930.337280,888.708191 
	C929.872253,857.216797 930.141357,825.714966 930.002075,794.217712 
	C929.986450,790.688293 931.238586,789.617737 934.677185,789.690063 
	C944.672363,789.900391 954.676392,789.706787 964.670288,789.948364 
	C966.626282,789.995728 969.010132,790.787109 970.420959,792.081055 
	C983.974304,804.512634 996.108154,818.205566 1006.374329,833.509155 
	C1020.836975,855.068481 1030.992920,878.851440 1041.936768,902.230408 
	C1056.696045,933.760315 1071.492310,965.272888 1086.249268,996.804016 
	C1087.434448,999.336487 1088.486572,1001.168030 1092.103882,1000.711731 
	C1103.803345,999.236084 1115.539673,997.835876 1127.305054,997.149902 
	C1145.217773,996.105652 1163.163452,995.570496 1181.101562,995.033447 
	C1195.088013,994.614746 1209.084595,994.358032 1223.075928,994.390259 
	C1227.015259,994.399353 1228.490845,992.743530 1228.931885,989.333313 
	C1230.359497,978.293701 1231.773560,967.252258 1233.179932,956.209961 
	C1233.692017,952.190063 1232.856689,950.045654 1227.875854,949.557617 
	C1213.128784,948.112610 1198.344604,945.189392 1187.541016,934.277893 
	C1179.664062,926.322144 1172.756836,917.049500 1167.005249,907.415955 
	C1152.406616,882.964783 1138.998901,857.804993 1124.544189,833.264771 
	C1112.731812,813.210327 1098.769043,794.769470 1079.914429,780.578674 
	C1076.666260,778.133911 1073.437256,775.663879 1069.606567,772.755310 
	C1076.020264,770.596008 1081.571411,768.920532 1086.981812,766.873413 
	C1116.886841,755.558411 1142.135620,738.164734 1159.703247,710.819397 
	C1176.153198,685.213684 1181.974976,656.832092 1180.957886,626.892517 
	C1179.395386,580.901794 1159.100342,546.087341 1118.374512,523.666565 
	C1088.644653,507.299438 1056.244385,501.844116 1023.008423,501.328247 
	C994.737915,500.889404 966.439392,502.455353 938.150146,502.957336 
	C913.025208,503.403107 887.896545,503.670013 862.768433,503.883942 
	C852.772888,503.969055 842.771912,503.802734 832.777649,503.569427 
	C812.484863,503.095734 792.193970,502.531342 771.904907,501.916138 
	C768.908142,501.825226 767.549744,502.843842 767.830139,505.922943 
	C768.885864,517.517151 769.951416,529.110962 770.890930,540.714905 
	C771.176453,544.240540 773.016541,545.494263 776.335632,545.860840 
	C781.123047,546.389587 785.911926,547.119812 790.616272,548.147888 
	C806.195679,551.552734 815.356995,561.430359 817.967590,576.956726 
	C819.531738,586.259399 820.854736,595.740112 820.874878,605.143738 
	C821.080688,701.136475 821.185852,797.130737 820.753052,893.121948 
	C820.699097,905.103516 818.073547,917.234619 815.332092,928.991455 
	C813.182495,938.210266 806.557556,944.732788 797.248291,947.465027 
	C790.575134,949.423401 783.692810,950.822449 776.810974,951.848328 
	C773.622742,952.323608 771.810059,953.370544 771.422363,956.452759 
	C769.911194,968.469238 768.445312,980.491638 767.021423,992.518738 
	C766.539795,996.586853 769.022522,997.181030 772.335449,996.964417 
	C782.924194,996.271790 793.513916,995.278809 804.113464,995.130127 
	C829.261292,994.777222 854.415100,994.735657 879.566162,994.776428 
	C897.396118,994.805359 915.225525,995.174194 933.987000,995.501038 
z"/>
<path fill="#7A26C1" opacity="1.000000" stroke="none" 
	d="
M933.521118,995.446167 
	C915.225525,995.174194 897.396118,994.805359 879.566162,994.776428 
	C854.415100,994.735657 829.261292,994.777222 804.113464,995.130127 
	C793.513916,995.278809 782.924194,996.271790 772.335449,996.964417 
	C769.022522,997.181030 766.539795,996.586853 767.021423,992.518738 
	C768.445312,980.491638 769.911194,968.469238 771.422363,956.452759 
	C771.810059,953.370544 773.622742,952.323608 776.810974,951.848328 
	C783.692810,950.822449 790.575134,949.423401 797.248291,947.465027 
	C806.557556,944.732788 813.182495,938.210266 815.332092,928.991455 
	C818.073547,917.234619 820.699097,905.103516 820.753052,893.121948 
	C821.185852,797.130737 821.080688,701.136475 820.874878,605.143738 
	C820.854736,595.740112 819.531738,586.259399 817.967590,576.956726 
	C815.356995,561.430359 806.195679,551.552734 790.616272,548.147888 
	C785.911926,547.119812 781.123047,546.389587 776.335632,545.860840 
	C773.016541,545.494263 771.176453,544.240540 770.890930,540.714905 
	C769.951416,529.110962 768.885864,517.517151 767.830139,505.922943 
	C767.549744,502.843842 768.908142,501.825226 771.904907,501.916138 
	C792.193970,502.531342 812.484863,503.095734 832.777649,503.569427 
	C842.771912,503.802734 852.772888,503.969055 862.768433,503.883942 
	C887.896545,503.670013 913.025208,503.403107 938.150146,502.957336 
	C966.439392,502.455353 994.737915,500.889404 1023.008423,501.328247 
	C1056.244385,501.844116 1088.644653,507.299438 1118.374512,523.666565 
	C1159.100342,546.087341 1179.395386,580.901794 1180.957886,626.892517 
	C1181.974976,656.832092 1176.153198,685.213684 1159.703247,710.819397 
	C1142.135620,738.164734 1116.886841,755.558411 1086.981812,766.873413 
	C1081.571411,768.920532 1076.020264,770.596008 1069.606567,772.755310 
	C1073.437256,775.663879 1076.666260,778.133911 1079.914429,780.578674 
	C1098.769043,794.769470 1112.731812,813.210327 1124.544189,833.264771 
	C1138.998901,857.804993 1152.406616,882.964783 1167.005249,907.415955 
	C1172.756836,917.049500 1179.664062,926.322144 1187.541016,934.277893 
	C1198.344604,945.189392 1213.128784,948.112610 1227.875854,949.557617 
	C1232.856689,950.045654 1233.692017,952.190063 1233.179932,956.209961 
	C1231.773560,967.252258 1230.359497,978.293701 1228.931885,989.333313 
	C1228.490845,992.743530 1227.015259,994.399353 1223.075928,994.390259 
	C1209.084595,994.358032 1195.088013,994.614746 1181.101562,995.033447 
	C1163.163452,995.570496 1145.217773,996.105652 1127.305054,997.149902 
	C1115.539673,997.835876 1103.803345,999.236084 1092.103882,1000.711731 
	C1088.486572,1001.168030 1087.434448,999.336487 1086.249268,996.804016 
	C1071.492310,965.272888 1056.696045,933.760315 1041.936768,902.230408 
	C1030.992920,878.851440 1020.836975,855.068481 1006.374329,833.509155 
	C996.108154,818.205566 983.974304,804.512634 970.420959,792.081055 
	C969.010132,790.787109 966.626282,789.995728 964.670288,789.948364 
	C954.676392,789.706787 944.672363,789.900391 934.677185,789.690063 
	C931.238586,789.617737 929.986450,790.688293 930.002075,794.217712 
	C930.141357,825.714966 929.872253,857.216797 930.337280,888.708191 
	C930.493835,899.307983 931.661621,910.027710 933.684204,920.436707 
	C937.786621,941.549561 945.608398,948.681763 966.827271,951.716736 
	C970.822998,952.288208 972.466064,953.942444 972.823486,957.493164 
	C973.605591,965.263000 974.386902,973.035156 974.978027,980.820862 
	C975.242249,984.301025 974.382080,987.983826 975.212219,991.277222 
	C976.564819,996.643250 974.143799,997.232910 969.867554,997.023621 
	C959.241455,996.503479 948.606262,996.171326 937.975098,995.753357 
	C936.644470,995.701050 935.316284,995.586670 933.521118,995.446167 
M976.873840,743.475403 
	C981.114990,742.671204 985.387451,742.003967 989.592041,741.040344 
	C1014.166138,735.408447 1035.097046,723.920044 1050.369385,703.259766 
	C1061.195435,688.614319 1065.827271,672.046814 1067.287842,654.066528 
	C1068.876221,634.515747 1067.125732,615.523743 1059.873779,597.333252 
	C1052.025757,577.647888 1039.323486,562.004028 1019.073120,553.979980 
	C991.230225,542.947449 962.751587,542.937683 933.978943,550.006836 
	C931.004150,550.737671 929.998718,552.124451 930.002258,555.161865 
	C930.073914,616.279358 930.073425,677.396912 930.005920,738.514404 
	C930.002441,741.651917 931.016418,742.690247 934.191711,743.158936 
	C948.125549,745.215332 962.039185,745.326050 976.873840,743.475403 
z"/>
<path fill="#7A26C1" opacity="1.000000" stroke="none" 
	d="
M1093.074341,1077.914185 
	C1097.257080,1082.814453 1101.439941,1087.714722 1105.370239,1092.319214 
	C1107.749268,1090.150879 1110.373169,1087.611206 1113.252808,1085.405151 
	C1113.492676,1085.221558 1115.458008,1087.290161 1116.791138,1088.461304 
	C1117.521851,1084.607910 1118.297729,1080.516235 1119.308105,1075.187500 
	C1121.667236,1078.142944 1123.318237,1080.211304 1124.885010,1082.174194 
	C1127.838135,1078.955688 1130.072876,1074.695190 1133.480469,1073.300415 
	C1137.166138,1071.791992 1141.946533,1072.958862 1144.957153,1072.958862 
	C1146.505493,1076.894165 1147.684814,1079.891479 1148.864014,1082.888672 
	C1152.022949,1081.420044 1155.322021,1080.185669 1158.296631,1078.408447 
	C1160.677734,1076.985840 1162.664551,1074.903687 1164.719238,1073.202881 
	C1165.306885,1073.446655 1165.758057,1073.486084 1165.867920,1073.700439 
	C1171.788208,1085.248413 1180.052856,1083.697876 1188.736084,1077.861206 
	C1213.624268,1061.131958 1238.715210,1044.662964 1262.994995,1027.081299 
	C1292.408203,1005.782349 1321.072388,983.448975 1350.061646,961.564270 
	C1351.515381,960.466675 1352.975830,959.377869 1355.041992,957.828186 
	C1355.041992,961.781799 1355.041992,965.109558 1355.041992,968.437256 
	C1355.302124,968.523926 1355.562378,968.610596 1355.822510,968.697266 
	C1357.376831,964.023071 1358.931152,959.348816 1360.316650,955.182251 
	C1363.987793,955.182251 1367.784668,956.212158 1370.419067,954.903076 
	C1373.260620,953.491028 1375.313477,950.084961 1377.189697,947.209167 
	C1384.354126,936.227600 1392.854736,926.490662 1403.144287,918.346436 
	C1404.668457,917.140015 1406.310913,916.083252 1408.861084,915.549744 
	C1408.224854,917.490845 1407.669800,919.462952 1406.940552,921.368408 
	C1387.660889,971.755066 1361.787720,1018.248474 1325.684570,1058.673828 
	C1322.727173,1061.985229 1320.891479,1065.460449 1320.249512,1070.042236 
	C1318.371826,1083.441895 1313.885010,1086.984009 1300.335083,1086.894897 
	C1298.835815,1086.885010 1297.333008,1086.881348 1295.837158,1086.968750 
	C1286.252075,1087.528442 1283.223511,1091.386353 1285.497925,1101.075073 
	C1274.702881,1092.503662 1264.954224,1099.403198 1255.015503,1102.221069 
	C1252.184570,1103.023804 1252.184326,1105.340332 1253.781616,1107.390381 
	C1255.617920,1109.747314 1257.799194,1111.831787 1259.727173,1114.121704 
	C1264.332886,1119.592163 1266.905518,1125.776123 1265.673828,1133.524536 
	C1261.289307,1128.871826 1256.904907,1124.219238 1251.870728,1118.877319 
	C1247.807495,1121.868530 1243.297974,1124.432983 1239.734131,1127.954346 
	C1229.427490,1138.138184 1219.318848,1148.540771 1209.569214,1159.255005 
	C1207.447144,1161.587036 1206.693970,1165.498657 1206.130371,1168.821777 
	C1205.559204,1172.189331 1206.004272,1175.729126 1206.004272,1179.965210 
	C1203.013062,1179.816162 1200.389648,1179.975708 1197.881592,1179.511841 
	C1185.247559,1177.174805 1179.027100,1182.166138 1179.001831,1194.852051 
	C1178.996826,1197.326050 1179.001099,1199.800049 1179.001099,1202.274170 
	C1178.542480,1202.638672 1178.083862,1203.003174 1177.625244,1203.367676 
	C1174.616211,1200.837036 1170.716064,1198.852295 1168.767822,1195.671875 
	C1163.282227,1186.716431 1156.449951,1184.572144 1146.418457,1187.621948 
	C1137.401001,1190.363525 1127.825317,1191.271118 1119.375732,1196.514282 
	C1119.653442,1197.744019 1119.908691,1198.838501 1120.146973,1199.936768 
	C1121.065674,1204.169434 1119.733154,1206.246582 1115.446411,1205.826782 
	C1111.579468,1205.448120 1107.659912,1204.377930 1104.042236,1202.920776 
	C1094.513428,1199.082153 1085.405029,1193.911987 1075.599854,1191.153687 
	C1069.540161,1189.449097 1062.512817,1191.223145 1055.918457,1191.364014 
	C1052.856934,1191.429321 1049.744141,1191.661987 1046.736328,1191.238281 
	C1032.765259,1189.270264 1018.882446,1186.482666 1004.858032,1185.128296 
	C975.354553,1182.279175 946.106995,1186.132812 916.889587,1189.754639 
	C915.922729,1189.874390 914.927979,1189.769775 913.484741,1189.769775 
	C913.278442,1185.548096 913.081726,1181.521851 912.813232,1176.026733 
	C906.786987,1182.662109 902.335693,1179.138672 897.173035,1176.228760 
	C877.736023,1165.273071 857.936890,1154.959595 838.506531,1143.992432 
	C832.028076,1140.335815 825.512817,1139.203735 818.179810,1138.771118 
	C802.989197,1137.875244 788.577332,1133.494751 776.792603,1123.338379 
	C767.838013,1115.621094 757.661011,1112.191040 746.100952,1112.073853 
	C742.768372,1112.040161 739.427551,1111.953369 736.102966,1112.127930 
	C710.925720,1113.449829 693.690125,1100.956421 681.276245,1080.395508 
	C674.219482,1068.707520 670.220886,1055.831055 667.983337,1042.411499 
	C666.709229,1034.770142 664.745178,1026.492798 657.082947,1023.965271 
	C649.824463,1021.571045 649.072937,1016.392029 646.874390,1011.026306 
	C632.480652,975.897705 617.963196,940.819458 603.385071,905.766846 
	C598.332336,893.617554 593.015564,881.577698 587.776428,869.506531 
	C582.068481,856.355286 582.871033,842.560425 583.278259,828.502563 
	C584.278625,828.502563 584.914856,828.426941 585.527954,828.514099 
	C592.904541,829.562073 596.134521,826.587708 594.706848,819.302063 
	C592.595581,808.527710 590.438171,797.729004 587.541382,787.148560 
	C580.950378,763.075256 570.243835,740.692688 558.674072,718.671814 
	C557.205566,715.876648 556.648193,712.012634 557.136841,708.872314 
	C561.231689,682.558838 565.533203,656.275330 570.036316,630.028137 
	C576.820007,590.487854 595.884399,558.099548 626.585449,532.211853 
	C637.122314,523.326965 646.522949,513.084778 656.337524,503.356628 
	C662.486816,497.261566 666.826477,490.014252 669.060425,481.602783 
	C671.827942,471.182190 677.249634,462.610962 685.209229,455.175354 
	C707.848511,434.026337 730.266907,412.634033 752.452271,391.009277 
	C761.101990,382.578094 770.995361,380.730286 782.321533,382.438110 
	C787.719666,383.252106 793.195923,383.699127 798.652771,383.924377 
	C802.866211,384.098297 805.735535,382.635406 807.522461,377.923645 
	C815.193176,357.696930 835.600891,343.421356 855.007080,344.051453 
	C856.499573,344.099915 858.050903,344.114105 859.463501,344.526031 
	C864.770142,346.073334 869.456909,344.714386 873.468994,341.309753 
	C879.431824,336.249786 885.148743,330.900543 890.985962,325.692017 
	C893.470154,323.475464 895.800537,321.001251 898.573486,319.226349 
	C900.192993,318.189758 903.033386,317.401581 904.435486,318.155334 
	C905.809509,318.894012 906.641724,321.718689 906.675232,323.645844 
	C906.742981,327.544800 906.109192,331.455963 905.717896,335.893250 
	C907.103333,335.502228 907.806091,335.485016 908.275574,335.145355 
	C928.096497,320.804474 950.695923,312.248718 973.367249,303.843079 
	C978.052429,302.105988 983.018555,300.907227 987.383484,298.576752 
	C994.049438,295.017731 999.561646,297.237488 1004.978333,300.879425 
	C1007.732056,302.731018 1010.216614,304.991699 1012.769531,307.131134 
	C1017.805786,311.351685 1023.151550,314.485229 1031.564087,311.586182 
	C1030.902588,320.310760 1030.867065,328.226929 1029.518433,335.912689 
	C1028.640259,340.916901 1024.409912,344.459198 1019.266113,345.001221 
	C1011.429932,345.826935 1003.489380,345.598999 995.610779,346.098083 
	C979.679260,347.107269 963.613708,347.310669 947.864380,349.623566 
	C911.306763,354.992157 878.703247,370.975281 847.207886,389.456421 
	C828.959961,400.164124 810.545288,410.608826 792.608093,421.816010 
	C784.193726,427.073364 776.217407,433.299683 768.935852,440.050415 
	C749.879395,457.717926 730.788513,475.403564 712.667969,494.013489 
	C679.227844,528.356689 655.058167,568.193481 645.722351,615.793091 
	C642.494507,632.250244 640.998718,649.061035 639.029358,665.747803 
	C636.200500,689.717773 633.772400,713.735352 630.884216,737.697754 
	C630.439575,741.387207 629.077759,745.296082 627.065369,748.408569 
	C619.003357,760.878113 618.443359,774.018982 621.240356,788.197449 
	C624.136414,802.877808 625.709045,817.819824 627.822998,832.652771 
	C627.983459,833.778503 627.844055,834.946960 627.844055,836.564514 
	C623.463257,834.870972 619.256165,833.569458 617.004333,839.200562 
	C615.425354,843.148987 617.867981,852.275024 622.092346,854.281189 
	C624.391479,855.372986 627.836426,854.051819 630.764526,853.818970 
	C630.932678,853.220703 631.100891,852.622437 631.269043,852.024170 
	C632.179749,853.681946 633.250549,855.272949 633.975403,857.008301 
	C639.174805,869.457275 644.523315,881.850586 649.401123,894.425781 
	C655.829773,910.999207 665.121277,925.669128 677.760315,938.112366 
	C706.723877,966.627502 735.760193,995.069580 764.900574,1023.403931 
	C779.832092,1037.922363 794.975159,1052.226807 810.242432,1066.390991 
	C811.994568,1068.016479 815.342773,1069.130615 817.643738,1068.727661 
	C824.401306,1067.544434 831.802979,1067.389526 836.447937,1060.888916 
	C839.432190,1066.208984 837.513489,1069.626465 827.480591,1076.773193 
	C845.573547,1088.008057 864.273438,1097.472168 885.296448,1100.910889 
	C899.562439,1103.244629 914.143616,1103.645874 928.414673,1105.956177 
	C955.340515,1110.315552 982.132935,1115.494751 1009.013550,1120.144043 
	C1012.328247,1120.717285 1015.900024,1120.523071 1019.254395,1120.024292 
	C1034.217773,1117.799194 1049.109985,1115.065552 1064.103638,1113.090576 
	C1069.971802,1112.317627 1075.211548,1111.210815 1078.999756,1106.320923 
	C1079.506226,1105.667114 1080.155396,1105.122192 1080.748901,1104.537476 
	C1087.599487,1097.788696 1087.600098,1097.789307 1089.281006,1088.000244 
	C1090.540894,1088.666748 1091.714966,1089.287842 1094.528198,1090.776123 
	C1093.828857,1086.108887 1093.301392,1082.588745 1092.841309,1078.575928 
	C1092.908691,1078.083252 1093.074341,1077.914185 1093.074341,1077.914185 
M636.039124,885.438232 
	C633.721252,881.188660 632.602234,875.921326 627.483582,873.957031 
	C629.950806,882.552124 631.998840,890.798889 634.731812,898.812073 
	C636.518433,904.050476 641.243042,906.396912 646.567444,908.960266 
	C642.842712,900.646912 639.590271,893.387817 636.039124,885.438232 
M622.509277,887.771973 
	C621.545349,884.617126 620.878723,881.320801 619.477234,878.374146 
	C618.881653,877.122009 616.746094,876.602295 615.310425,875.749756 
	C614.661438,877.577698 612.911011,880.126465 613.553955,881.108826 
	C616.348633,885.378845 619.840698,889.192383 623.079285,893.171753 
	C623.321045,893.015869 623.562805,892.859924 623.804565,892.703979 
	C623.452637,891.296570 623.100708,889.889160 622.509277,887.771973 
z"/>
<path fill="#7A26C1" opacity="1.000000" stroke="none" 
	d="
M1443.986938,661.990234 
	C1440.981812,672.884155 1437.096069,683.624817 1435.166870,694.706055 
	C1431.831299,713.866760 1429.710449,733.238831 1427.075928,752.521729 
	C1426.988892,753.158203 1426.857056,753.788574 1426.503052,755.808350 
	C1421.056641,732.909973 1426.003174,711.576721 1427.837158,689.523987 
	C1426.851929,690.410583 1426.452515,690.963135 1425.912231,691.223206 
	C1423.378662,692.443054 1420.229004,695.067383 1418.400635,694.356689 
	C1416.334229,693.553467 1414.130371,689.642395 1414.288574,687.234253 
	C1414.741943,680.338440 1411.555176,676.643311 1406.426880,672.492249 
	C1394.362549,662.726807 1386.000610,649.776123 1378.785767,636.126282 
	C1378.163086,634.948181 1377.636230,633.711426 1376.928589,632.587646 
	C1373.590820,627.286743 1373.212036,622.132019 1374.489014,615.669861 
	C1376.125122,607.389160 1375.748413,598.489075 1374.865723,589.998718 
	C1374.085571,582.494629 1369.715698,575.613098 1363.236450,572.030823 
	C1344.719849,561.793152 1338.430420,543.940552 1333.180176,525.591431 
	C1330.339111,515.661499 1329.435669,505.177124 1327.594971,494.578888 
	C1325.018066,495.876953 1321.666626,497.502472 1318.372559,499.236969 
	C1309.805542,503.747833 1302.344604,503.395691 1293.886719,497.379272 
	C1254.386963,469.281372 1214.539429,441.666412 1174.567261,414.241943 
	C1163.738403,406.812408 1152.126831,400.495850 1140.671631,394.027802 
	C1138.104614,392.578339 1134.713257,392.306793 1131.655029,392.055176 
	C1112.280151,390.461334 1093.734863,386.351044 1078.111450,373.932068 
	C1074.260132,370.870697 1070.594604,367.174011 1067.965942,363.053406 
	C1060.791138,351.806519 1067.076538,337.281128 1080.209717,335.379303 
	C1089.823364,333.987183 1099.759766,332.248596 1109.341309,336.914978 
	C1110.434204,335.191101 1111.095215,333.282990 1112.429688,332.221008 
	C1115.324463,329.917542 1118.531982,326.336578 1121.666992,326.278809 
	C1140.755981,325.927216 1160.018188,324.953461 1178.920288,326.990936 
	C1203.437012,329.633575 1226.203735,339.298920 1248.262939,350.133270 
	C1276.707520,364.103790 1302.122192,382.336060 1322.122925,407.055695 
	C1331.183350,418.253540 1338.294312,431.059357 1345.995117,443.320709 
	C1368.502075,479.155914 1390.741943,515.159546 1413.409790,550.892151 
	C1416.687134,556.058594 1417.114746,561.464172 1417.824585,566.989624 
	C1420.178345,585.313049 1422.774170,603.621765 1424.442749,622.011780 
	C1425.883423,637.890259 1426.195312,653.871582 1426.977905,669.808777 
	C1427.072388,671.733154 1426.990723,673.666199 1426.990723,675.595276 
	C1427.561890,675.951294 1428.132935,676.307312 1428.704102,676.663330 
	C1430.735229,674.619263 1432.772095,672.580688 1434.796265,670.529785 
	C1437.633057,667.655579 1440.460449,664.772278 1443.646973,661.947754 
	C1444.002075,662.002625 1443.986938,661.990234 1443.986938,661.990234 
z"/>
<path fill="#7A26C1" opacity="1.000000" stroke="none" 
	d="
M1444.009033,662.011108 
	C1444.015991,662.019531 1444.141113,661.661377 1444.141113,661.661377 
	C1444.141113,661.661377 1444.183228,661.930237 1444.085083,661.960205 
	C1443.986938,661.990234 1444.002075,662.002625 1444.009033,662.011108 
z"/>
<path fill="#7A26C1" opacity="1.000000" stroke="none" 
	d="
M1092.825195,1078.167114 
	C1092.667847,1078.010254 1092.593994,1077.769653 1092.520264,1077.528931 
	C1092.650391,1077.554565 1092.780518,1077.580200 1092.992432,1077.760010 
	C1093.074341,1077.914185 1092.908691,1078.083252 1092.825195,1078.167114 
z"/>
<path fill="#B19DD0" opacity="1.000000" stroke="none" 
	d="
M976.435059,743.572205 
	C962.039185,745.326050 948.125549,745.215332 934.191711,743.158936 
	C931.016418,742.690247 930.002441,741.651917 930.005920,738.514404 
	C930.073425,677.396912 930.073914,616.279358 930.002258,555.161865 
	C929.998718,552.124451 931.004150,550.737671 933.978943,550.006836 
	C962.751587,542.937683 991.230225,542.947449 1019.073120,553.979980 
	C1039.323486,562.004028 1052.025757,577.647888 1059.873779,597.333252 
	C1067.125732,615.523743 1068.876221,634.515747 1067.287842,654.066528 
	C1065.827271,672.046814 1061.195435,688.614319 1050.369385,703.259766 
	C1035.097046,723.920044 1014.166138,735.408447 989.592041,741.040344 
	C985.387451,742.003967 981.114990,742.671204 976.435059,743.572205 
z"/>
<path fill="#AE96CF" opacity="1.000000" stroke="none" 
	d="
M636.188477,885.783447 
	C639.590271,893.387817 642.842712,900.646912 646.567444,908.960266 
	C641.243042,906.396912 636.518433,904.050476 634.731812,898.812073 
	C631.998840,890.798889 629.950806,882.552124 627.483582,873.957031 
	C632.602234,875.921326 633.721252,881.188660 636.188477,885.783447 
z"/>
<path fill="#AD94CF" opacity="1.000000" stroke="none" 
	d="
M622.629028,888.126831 
	C623.100708,889.889160 623.452637,891.296570 623.804565,892.703979 
	C623.562805,892.859924 623.321045,893.015869 623.079285,893.171753 
	C619.840698,889.192383 616.348633,885.378845 613.553955,881.108826 
	C612.911011,880.126465 614.661438,877.577698 615.310425,875.749756 
	C616.746094,876.602295 618.881653,877.122009 619.477234,878.374146 
	C620.878723,881.320801 621.545349,884.617126 622.629028,888.126831 
z"/>
</svg>